<?xml version="1.0" encoding="UTF-8"?>
<svg width="157px" height="38px" viewBox="0 0 157 38" version="1.1" xmlns="http://www.w3.org/2000/svg" xmlns:xlink="http://www.w3.org/1999/xlink">
    <!-- Generator: Sketch 55.2 (78181) - https://sketchapp.com -->
    <title>Group 21</title>
    <desc>Created with Sketch.</desc>
    <defs>
        <polygon id="path-1" points="0.269943878 0.370540426 20.8449541 0.370540426 20.8449541 29.106383 0.269943878 29.106383"></polygon>
        <polygon id="path-3" points="0.217957653 0.409510638 6.89838776 0.409510638 6.89838776 28.7623617 0.217957653 28.7623617"></polygon>
    </defs>
    <g id="Landing-Page" stroke="none" stroke-width="1" fill="white" fill-rule="evenodd">
        <g id="Filmgrail_LP_Hero_Example" transform="translate(-148.000000, -67.000000)">
            <g id="Group-21" transform="translate(148.000000, 67.000000)">
                <path d="M20.3948607,28.8740979 C20.2050189,28.6824809 20.1104985,28.4585234 20.1104985,28.2038426 L20.1104985,11.4126936 C20.1104985,11.1321404 20.2050189,10.9017149 20.3948607,10.7238426 C20.5839015,10.5451617 20.8057842,10.455417 21.0589066,10.455417 L25.8041515,10.455417 C26.0821056,10.455417 26.3168046,10.5451617 26.5066464,10.7238426 C26.6956872,10.9017149 26.7902077,11.1321404 26.7902077,11.4126936 L26.7902077,28.2038426 C26.7902077,28.4852043 26.6956872,28.7148213 26.5066464,28.8926936 C26.3168046,29.072183 26.0821056,29.1611191 25.8041515,29.1611191 L21.0589066,29.1611191 C20.8057842,29.1611191 20.5839015,29.0657149 20.3948607,28.8740979 M20.3756362,6.07733191 C20.1986107,5.88490638 20.1104985,5.64882128 20.1104985,5.36826809 L20.1104985,1.8051617 C20.1104985,1.5238 20.2050189,1.28771489 20.3948607,1.09609787 C20.5839015,0.904480851 20.8057842,0.808268085 21.0589066,0.808268085 L25.8041515,0.808268085 C26.0821056,0.808268085 26.3168046,0.904480851 26.5066464,1.09609787 C26.6956872,1.28771489 26.7902077,1.5238 26.7902077,1.8051617 L26.7902077,5.36826809 C26.7902077,5.64882128 26.6956872,5.88490638 26.5066464,6.07733191 C26.3168046,6.26814043 26.0821056,6.36435319 25.8041515,6.36435319 L21.0589066,6.36435319 C20.7801515,6.36435319 20.5518607,6.26814043 20.3756362,6.07733191" id="Fill-1" fill="white"></path>
                <path d="M31.4785,28.893017 C31.2886582,28.7143362 31.1941378,28.4847191 31.1941378,28.2033574 L31.1941378,1.76586809 C31.1941378,1.4861234 31.2886582,1.25569787 31.4785,1.07701702 C31.6683418,0.89833617 31.9014388,0.808591489 32.1809949,0.808591489 L36.9262398,0.808591489 C37.2033929,0.808591489 37.4316837,0.89833617 37.6087092,1.07701702 C37.7857347,1.25569787 37.874648,1.4861234 37.874648,1.76586809 L37.874648,28.2033574 C37.874648,28.4588468 37.7857347,28.6819957 37.6087092,28.8744213 C37.4316837,29.0660383 37.2033929,29.1614426 36.9262398,29.1614426 L32.1809949,29.1614426 C31.9014388,29.1614426 31.6683418,29.0725064 31.4785,28.893017" id="Fill-3" fill="white"></path>
                <g id="Group-7" transform="translate(76.096939, 8.484187)">
                    <mask id="mask-2" fill="white">
                        <use xlink:href="#path-1"></use>
                    </mask>
                    <g id="Clip-6"></g>
                    <path d="M12.9869439,14.0489234 C13.5180204,13.3851362 13.8216071,12.5418596 13.8977041,11.5199021 C13.9225357,11.3412213 13.9361531,10.9587957 13.9361531,10.3702 C13.9361531,9.75734894 13.9225357,9.3749234 13.8977041,9.22049787 C13.8216071,8.1734766 13.5180204,7.32454043 12.9869439,6.67288085 C12.4550663,6.02122128 11.6444337,5.6962 10.557449,5.6962 C9.44322959,5.6962 8.63339796,6.03496596 8.12795408,6.71168936 C7.62170918,7.38841277 7.34295408,8.32709362 7.2924898,9.52773191 L7.25484184,10.3702 C7.25484184,11.8263277 7.49514796,12.9695617 7.9757602,13.7990936 C8.45637245,14.6302426 9.31666837,15.0442 10.557449,15.0442 C11.6444337,15.0442 12.4550663,14.7127106 12.9869439,14.0489234 M4.93909184,27.9181149 C3.42115816,27.126583 2.33177041,26.2137745 1.67493367,25.1796894 C1.0164949,24.1447957 0.688076531,23.2829234 0.688076531,22.5924553 C0.688076531,22.336966 0.788204082,22.1194766 0.990862245,21.9416043 C1.19352041,21.7629234 1.42181122,21.6739872 1.67493367,21.6739872 L6.76141327,21.6739872 C7.01373469,21.6739872 7.21639286,21.730583 7.36858673,21.8462 C7.52078061,21.9602 7.65935714,22.1582851 7.78591837,22.4396468 C8.0382398,23.0007532 8.36745918,23.4413915 8.77277551,23.7615617 C9.17729082,24.0801149 9.81009694,24.2402 10.6703929,24.2402 C11.7589796,24.2402 12.5696122,23.9661149 13.1006888,23.4163277 C13.6325663,22.8665404 13.8977041,21.9537319 13.8977041,20.6770936 L13.8977041,18.1100723 C12.5559949,19.5152638 10.7216582,20.2178596 8.39389286,20.2178596 C5.83703571,20.2178596 3.88254592,19.4699872 2.52882143,17.9758596 C1.17429592,16.4817319 0.434153061,14.2785404 0.308392857,11.3670936 L0.269943878,10.3322 C0.269943878,7.2162 0.958821429,4.77611489 2.33897959,3.01437021 C3.71833673,1.25181702 5.73610714,0.370540426 8.39389286,0.370540426 C9.68433673,0.370540426 10.8225867,0.619561702 11.8094439,1.11760426 C12.797102,1.61564681 13.618949,2.28590213 14.2765867,3.12917872 L14.2765867,1.74985957 C14.2765867,1.46849787 14.3655,1.23241277 14.5425255,1.04079574 C14.719551,0.849178723 14.9470408,0.753774468 15.2265969,0.753774468 L19.8572959,0.753774468 C20.13525,0.753774468 20.369949,0.849178723 20.5597908,1.04079574 C20.7488316,1.23241277 20.8449541,1.46849787 20.8449541,1.74985957 L20.8449541,20.1022426 C20.8449541,23.0395617 19.9710408,25.2750936 18.2248163,26.8072213 C16.4785918,28.3401574 14.0242653,29.1066255 10.8610357,29.1066255 C8.43154082,29.1066255 6.45782653,28.7104553 4.93909184,27.9181149" id="Fill-5" fill="white" mask="url(#mask-2)"></path>
                </g>
                <path d="M101.611602,28.8740979 C101.422561,28.6824809 101.327239,28.4585234 101.327239,28.2038426 L101.327239,10.2338851 C101.327239,9.95333191 101.415352,9.71724681 101.593178,9.52482128 C101.769403,9.33320426 101.996892,9.2378 102.275647,9.2378 L106.907147,9.2378 C107.185102,9.2378 107.419801,9.33320426 107.608841,9.52482128 C107.799484,9.71724681 107.894005,9.95333191 107.894005,10.2338851 L107.894005,11.6900128 C108.602908,10.8984809 109.431964,10.2920979 110.380372,9.87005532 C111.329581,9.44882128 112.385326,9.2378 113.55001,9.2378 L114.200438,9.2378 C114.478392,9.2378 114.706683,9.32754468 114.883709,9.50622553 C115.060734,9.68490638 115.149647,9.91533191 115.149647,10.1950766 L115.149647,14.3718426 C115.149647,14.6273319 115.060734,14.8504809 114.883709,15.0429064 C114.706683,15.2337149 114.478392,15.3299277 114.200438,15.3299277 L111.424102,15.3299277 C110.411612,15.3299277 109.633821,15.6112894 109.089928,16.1723957 C108.545234,16.7343106 108.273688,17.5266511 108.273688,18.5486085 L108.273688,28.2038426 C108.273688,28.4852043 108.178367,28.7148213 107.989326,28.8926936 C107.799484,29.072183 107.564785,29.1611191 107.286831,29.1611191 L102.275647,29.1611191 C102.023326,29.1611191 101.801443,29.0657149 101.611602,28.8740979" id="Fill-8" fill="white"></path>
                <path d="M127.508591,23.9124298 C128.203877,23.171834 128.552321,22.0989404 128.552321,20.6937489 L128.552321,20.2337064 L125.401908,20.7705574 C123.275999,21.1788553 122.213846,21.9453234 122.213846,23.0691532 C122.213846,23.6577489 122.45976,24.1299191 122.953188,24.4872809 C123.447418,24.8446426 124.060198,25.0233234 124.793933,25.0233234 C125.908153,25.0233234 126.812505,24.6530255 127.508591,23.9124298 M121.728428,15.3300894 L117.885132,15.3300894 C117.632811,15.3300894 117.423744,15.2468128 117.259535,15.0802596 C117.094525,14.9145149 117.024836,14.7164298 117.050469,14.4868128 C117.076102,13.7971532 117.417336,12.8334085 118.075775,11.9771957 C118.733413,11.1217915 119.733086,10.3868553 121.074795,9.77400426 C122.415704,9.16115319 124.073015,8.85472766 126.04753,8.85472766 C129.185127,8.85472766 131.513693,9.55085532 133.032428,10.9423021 C134.550362,12.335366 135.308928,14.2191957 135.308928,16.5937915 L135.308928,28.2040043 C135.308928,28.4586851 135.220015,28.681834 135.04379,28.8742596 C134.866765,29.0658766 134.638474,29.1612809 134.36052,29.1612809 L129.691372,29.1612809 C129.438249,29.1612809 129.217168,29.0658766 129.027326,28.8742596 C128.836683,28.681834 128.742163,28.4586851 128.742163,28.2040043 L128.742163,26.8618766 C128.185454,27.654217 127.414071,28.2994085 126.426413,28.7974511 C125.439556,29.2954936 124.262857,29.5445149 122.896316,29.5445149 C121.554607,29.5445149 120.334653,29.2825574 119.233249,28.7586426 C118.132647,28.2363447 117.272352,27.5135362 116.651561,26.5942596 C116.031571,25.674983 115.722377,24.6659617 115.722377,23.5671957 C115.722377,21.8305149 116.436887,20.4196638 117.866709,19.333834 C119.29653,18.2480043 121.263836,17.5009404 123.769428,17.091834 L128.476224,16.3641745 L128.476224,15.9049404 C128.476224,14.9597915 128.287183,14.2701319 127.907499,13.8351532 C127.527015,13.4017915 126.882193,13.1834936 125.971433,13.1834936 C125.464387,13.1834936 125.041448,13.2740468 124.699413,13.4519191 C124.357377,13.6314085 123.965678,13.8917489 123.541938,14.2571957 L122.682443,14.9929404 C122.682443,14.9929404 122.339607,15.3300894 121.728428,15.3300894" id="Fill-10" fill="white"></path>
                <path d="M139.241538,28.8740979 C139.051696,28.6824809 138.957176,28.4585234 138.957176,28.2038426 L138.957176,11.4126936 C138.957176,11.1321404 139.051696,10.9017149 139.241538,10.7238426 C139.43138,10.5451617 139.652461,10.455417 139.905584,10.455417 L144.650829,10.455417 C144.929584,10.455417 145.163482,10.5451617 145.353323,10.7238426 C145.542364,10.9017149 145.637686,11.1321404 145.637686,11.4126936 L145.637686,28.2038426 C145.637686,28.4852043 145.542364,28.7148213 145.353323,28.8926936 C145.163482,29.072183 144.929584,29.1611191 144.650829,29.1611191 L139.905584,29.1611191 C139.652461,29.1611191 139.43138,29.0657149 139.241538,28.8740979 M139.223114,6.07733191 C139.045288,5.88490638 138.957176,5.64882128 138.957176,5.36826809 L138.957176,1.8051617 C138.957176,1.5238 139.051696,1.28771489 139.241538,1.09609787 C139.43138,0.904480851 139.652461,0.808268085 139.905584,0.808268085 L144.650829,0.808268085 C144.929584,0.808268085 145.163482,0.904480851 145.353323,1.09609787 C145.542364,1.28771489 145.637686,1.5238 145.637686,1.8051617 L145.637686,5.36826809 C145.637686,5.64882128 145.542364,5.88490638 145.353323,6.07733191 C145.163482,6.26814043 144.929584,6.36435319 144.650829,6.36435319 L139.905584,6.36435319 C139.626829,6.36435319 139.399339,6.26814043 139.223114,6.07733191" id="Fill-12" fill="white"></path>
                <g id="Group-16" transform="translate(149.790816, 0.399081)">
                    <mask id="mask-4" fill="white">
                        <use xlink:href="#path-3"></use>
                    </mask>
                    <g id="Clip-15"></g>
                    <path d="M0.502319898,28.4939362 C0.313279082,28.3152553 0.217957653,28.0856383 0.217957653,27.8042766 L0.217957653,1.36678723 C0.217957653,1.08704255 0.313279082,0.856617021 0.502319898,0.67793617 C0.692161735,0.499255319 0.926059694,0.409510638 1.2048148,0.409510638 L5.95005969,0.409510638 C6.22721276,0.409510638 6.45630459,0.499255319 6.63252908,0.67793617 C6.80955459,0.856617021 6.89846786,1.08704255 6.89846786,1.36678723 L6.89846786,27.8042766 C6.89846786,28.059766 6.80955459,28.2829149 6.63252908,28.4753404 C6.45630459,28.6669574 6.22721276,28.7623617 5.95005969,28.7623617 L1.2048148,28.7623617 C0.926059694,28.7623617 0.692161735,28.6734255 0.502319898,28.4939362" id="Fill-14" fill="white" mask="url(#mask-4)"></path>
                </g>
                <path d="M71.8525719,9.25582979 L69.7667148,9.25582979 L64.8412403,9.25582979 C64.1195209,9.25582979 63.453873,9.74093617 63.3080872,10.4548511 C62.7577862,13.1674043 60.3731485,15.2137447 57.5247199,15.2137447 C54.6778934,15.2137447 52.2932556,13.1674043 51.7429546,10.4548511 C51.5971689,9.74093617 50.9315209,9.25582979 50.2090005,9.25582979 L45.284327,9.25582979 L43.1920617,9.25582979 C42.6738015,9.25582979 42.2540668,9.67948936 42.2540668,10.2025957 L42.2540668,28.2081277 C42.2540668,28.7352766 42.6770056,29.1613617 43.1984699,29.1613617 L47.9701485,29.1613617 C48.4828015,29.1613617 48.8985311,28.7417447 48.8985311,28.2234894 L48.8985311,17.5382128 C51.1133526,19.7608085 54.1628372,21.1368936 57.5247199,21.1368936 C60.8882046,21.1368936 63.9376893,19.7608085 66.1525107,17.5374043 L66.1525107,27.8847234 L66.1525107,30.9384681 C66.1525107,31.4017447 66.476924,31.8003404 66.9278985,31.8884681 L71.6547199,32.8206809 C72.246674,32.9379149 72.796975,32.4811064 72.796975,31.8722979 L72.796975,10.2122979 L72.796975,10.2114894 L72.796975,10.2090638 C72.796975,9.93012766 72.7088628,9.70131915 72.5326383,9.5226383 C72.3564138,9.34557447 72.130526,9.25582979 71.8525719,9.25582979" id="Fill-17" fill="white"></path>
                <path d="M0.284842857,28.8740979 C0.0950010204,28.6824809 0.000480612245,28.4585234 0.000480612245,28.2038426 L0.000480612245,1.8051617 C0.000480612245,1.5238 0.0885928571,1.28771489 0.266419388,1.09609787 C0.441842857,0.904480851 0.670133673,0.808268085 0.948888776,0.808268085 L15.754149,0.808268085 C16.0321031,0.808268085 16.266802,0.904480851 16.4558429,1.09609787 C16.6464857,1.28771489 16.7410061,1.5238 16.7410061,1.8051617 L16.7410061,5.86631064 C16.7410061,6.14767234 16.6464857,6.37728936 16.4558429,6.55597021 C16.266802,6.73465106 16.0321031,6.82439574 15.754149,6.82439574 L6.98457755,6.82439574 L6.98457755,12.1492468 L14.736052,12.1492468 C15.0140061,12.1492468 15.2487051,12.2454596 15.4385469,12.4370766 C15.6275878,12.6286936 15.7221082,12.8647787 15.7221082,13.1461404 L15.7221082,17.2072894 C15.7221082,17.4886511 15.6275878,17.7182681 15.4385469,17.8969489 C15.2487051,18.0764383 15.0140061,18.1653745 14.736052,18.1653745 L6.98457755,18.1653745 L6.98457755,28.2038426 C6.98457755,28.4585234 6.89566429,28.6824809 6.71863878,28.8740979 C6.54161327,29.0657149 6.31332245,29.1611191 6.03616939,29.1611191 L0.948888776,29.1611191 C0.695766327,29.1611191 0.473883673,29.0657149 0.284842857,28.8740979" id="Fill-19" fill="white"></path>
            </g>
        </g>
    </g>
</svg>