<?xml version="1.0" encoding="UTF-8"?>
<svg width="140px" height="30px" viewBox="0 0 140 30" version="1.1" xmlns="http://www.w3.org/2000/svg" xmlns:xlink="http://www.w3.org/1999/xlink">
    <!-- Generator: Sketch 51.2 (57519) - http://www.bohemiancoding.com/sketch -->
    <title>Group</title>
    <desc>Created with Sketch.</desc>
    <defs></defs>
    <g id="Barlow" stroke="none" stroke-width="1" fill="none" fill-rule="evenodd">
        <g id="10.-Bizbot-Landing-Page---istanbul2-Copy-4" transform="translate(-458.000000, -99.000000)" fill="#FEFEFE">
            <g id="Group" transform="translate(458.000000, 99.000000)">
                <path d="M64.3067468,21.55932 C63.6883433,22.0638 62.8014764,22.31532 61.6473476,22.31532 L57.5038283,22.31532 L57.5038283,16.3254 L61.6165837,16.3254 C62.7707124,16.3254 63.6619056,16.58772 64.2911245,17.11284 C64.9198627,17.63748 65.2339914,18.38436 65.2339914,19.35156 C65.2339914,20.319 64.9249099,21.0546 64.3067468,21.55932 Z M57.5038283,7.55628 L61.36903,7.55628 C62.5231588,7.55628 63.3790215,7.80348 63.9356567,8.2974 C64.4920515,8.79156 64.7706094,9.4914 64.7706094,10.39668 C64.7706094,11.3034 64.4867639,11.99796 63.9202747,12.48132 C63.352824,12.96492 62.5231588,13.20684 61.4310386,13.20684 L57.5038283,13.20684 L57.5038283,7.55628 Z M65.3270043,14.62692 C66.4813734,14.36004 67.4141459,13.79364 68.1253219,12.92892 C68.8367382,12.0642 69.192206,10.95276 69.192206,9.59436 C69.192206,7.84476 68.599279,6.48588 67.4141459,5.51844 C66.2285322,4.55124 64.5331502,4.06716 62.3277597,4.06716 L53.144,4.06716 L53.144,25.86636 L62.5130644,25.86636 C64.8424721,25.86636 66.6202918,25.33668 67.8470043,24.27636 C69.0734764,23.21628 69.687073,21.77052 69.687073,19.93812 C69.687073,18.621 69.2895451,17.47308 68.4966524,16.49508 C67.7027983,15.51756 66.6460086,14.89476 65.3270043,14.62692 Z" id="Fill-15"></path>
                <path d="M75.4688687,2.137368 C74.9740017,1.694808 74.324594,1.473288 73.5211262,1.473288 C72.7169373,1.473288 72.06777,1.694808 71.5726627,2.137368 C71.0780361,2.580168 70.8307227,3.151368 70.8307227,3.851208 C70.8307227,4.530168 71.0780361,5.091528 71.5726627,5.533848 C72.06777,5.976888 72.7169373,6.197688 73.5211262,6.197688 C74.324594,6.197688 74.9740017,5.976888 75.4688687,5.533848 C75.9637356,5.091528 76.2110489,4.530168 76.2110489,3.851208 C76.2110489,3.151368 75.9637356,2.580168 75.4688687,2.137368" id="Fill-16"></path>
                <polygon id="Fill-17" points="71.3254455 25.866528 75.6852738 25.866528 75.6852738 8.760528 71.3254455 8.760528"></polygon>
                <polygon id="Fill-18" points="90.9294592 12.187824 90.9294592 8.760384 78.2518283 8.760384 78.2518283 12.373104 85.9509871 12.373104 78.0660429 22.408224 78.0660429 25.866384 91.2387811 25.866384 91.2387811 22.222944 82.8279657 22.222944"></polygon>
                <path d="M104.565892,21.55932 C103.947488,22.0638 103.060862,22.31532 101.906493,22.31532 L97.7629734,22.31532 L97.7629734,16.3254 L101.875729,16.3254 C103.029858,16.3254 103.921051,16.58772 104.55051,17.11284 C105.179008,17.63748 105.493377,18.38436 105.493377,19.35156 C105.493377,20.319 105.184055,21.0546 104.565892,21.55932 Z M97.7629734,7.55628 L101.628175,7.55628 C102.782304,7.55628 103.638167,7.80348 104.194802,8.2974 C104.751197,8.79156 105.029755,9.4914 105.029755,10.39668 C105.029755,11.3034 104.746149,11.99796 104.17942,12.48132 C103.611969,12.96492 102.782304,13.20684 101.690184,13.20684 L97.7629734,13.20684 L97.7629734,7.55628 Z M105.586149,14.62692 C106.740518,14.36004 107.673291,13.79364 108.384707,12.92892 C109.095883,12.0642 109.451351,10.95276 109.451351,9.59436 C109.451351,7.84476 108.858664,6.48588 107.673291,5.51844 C106.487677,4.55124 104.792295,4.06716 102.586905,4.06716 L93.4031451,4.06716 L93.4031451,25.86636 L102.77245,25.86636 C105.101617,25.86636 106.879437,25.33668 108.10639,24.27636 C109.332621,23.21628 109.946218,21.77052 109.946218,19.93812 C109.946218,18.621 109.54869,17.47308 108.755797,16.49508 C107.961943,15.51756 106.905154,14.89476 105.586149,14.62692 Z" id="Fill-19"></path>
                <path d="M123.087351,21.03432 C122.241823,21.88896 121.211231,22.31544 119.995334,22.31544 C118.778716,22.31544 117.747883,21.88896 116.903317,21.03432 C116.057548,20.18016 115.635265,18.9396 115.635265,17.31336 C115.635265,15.68784 116.057548,14.44728 116.903317,13.59288 C117.747883,12.73896 118.778716,12.31128 119.995334,12.31128 C121.211231,12.31128 122.241823,12.73896 123.087351,13.59288 C123.932639,14.44728 124.355162,15.68784 124.355162,17.31336 C124.355162,18.9396 123.932639,20.18016 123.087351,21.03432 M124.494321,9.59424 C123.164501,8.89464 121.664999,8.54448 119.995334,8.54448 C118.325669,8.54448 116.825686,8.89464 115.496106,9.59424 C114.166767,10.29432 113.119832,11.30808 112.357703,12.63576 C111.594853,13.9632 111.213669,15.52248 111.213669,17.31336 C111.213669,19.10424 111.594853,20.65896 112.357703,21.97608 C113.119832,23.29344 114.166767,24.3072 115.496106,25.0176 C116.825686,25.72752 118.325669,26.08272 119.995334,26.08272 C121.664999,26.08272 123.164501,25.72752 124.494321,25.0176 C125.824141,24.3072 126.869875,23.29344 127.632724,21.97608 C128.395334,20.65896 128.776999,19.10424 128.776999,17.31336 C128.776999,15.52248 128.395334,13.9632 127.632724,12.63576 C126.869875,11.30808 125.824141,10.29432 124.494321,9.59424" id="Fill-20"></path>
                <path d="M137.92949,22.130496 C137.14549,22.130496 136.589095,21.965856 136.259825,21.636096 C135.929833,21.307296 135.764958,20.730576 135.764958,19.907136 L135.764958,12.434976 L139.599155,12.434976 L139.599155,8.760336 L135.764958,8.760336 L135.764958,4.530096 L131.40513,4.530096 L131.40513,8.760336 L129.024048,8.760336 L129.024048,12.434976 L131.40513,12.434976 L131.40513,19.845456 C131.40513,22.006896 131.915379,23.550576 132.935636,24.476736 C133.956134,25.403376 135.424872,25.866336 137.342091,25.866336 L139.629919,25.866336 L139.629919,22.130496 L137.92949,22.130496 Z" id="Fill-21"></path>
                <path d="M37.2378369,4.07376 L37.2378369,12.94008 L31.0533219,12.94008 C29.2988155,12.94008 27.9605837,12.5484 27.0393476,11.76384 C26.1185923,10.97952 25.6580944,9.88728 25.6580944,8.48592 C25.6580944,7.11384 26.1185923,6.03504 27.0393476,5.25024 C27.9605837,4.4664 29.3576996,4.07376 31.2285322,4.07376 L37.2378369,4.07376 Z M37.2378369,25.88688 L31.2285322,25.88688 C29.3576996,25.88688 27.9605837,25.49424 27.0393476,24.70992 C26.1185923,23.92536 25.6580944,22.8468 25.6580944,21.47448 C25.6580944,20.07312 26.1185923,18.98064 27.0393476,18.1968 C27.9605837,17.412 29.2988155,17.02008 31.0533219,17.02008 L37.2378369,17.02008 L37.2378369,25.88688 Z M22.0611159,17.90832 C21.6734421,18.4608 21.3600343,19.0788 21.1192103,19.76016 C20.8783863,19.0788 20.5649785,18.4608 20.1775451,17.90832 C19.1532017,16.4484 17.808721,15.47232 16.1416996,14.98008 C17.808721,14.48808 19.1532017,13.512 20.1775451,12.05208 C20.5649785,11.49936 20.8783863,10.8816 21.1192103,10.2 C21.3600343,10.8816 21.6734421,11.49936 22.0611159,12.05208 C23.0852189,13.512 24.4296996,14.48808 26.096721,14.98008 C24.4296996,15.47232 23.0852189,16.4484 22.0611159,17.90832 Z M15.199073,24.70992 C14.2778369,25.49424 12.880721,25.88688 11.0098884,25.88688 L5.00034335,25.88688 L5.00034335,17.02008 L11.1853391,17.02008 C12.9396052,17.02008 14.2778369,17.412 15.199073,18.1968 C16.1198283,18.98064 16.5803262,20.07312 16.5803262,21.47448 C16.5803262,22.8468 16.1198283,23.92536 15.199073,24.70992 Z M5.00034335,4.07376 L11.0098884,4.07376 C12.880721,4.07376 14.2778369,4.4664 15.199073,5.25024 C16.1198283,6.03504 16.5803262,7.11384 16.5803262,8.48592 C16.5803262,9.88728 16.1198283,10.97952 15.199073,11.76384 C14.2778369,12.5484 12.9396052,12.94008 11.1853391,12.94008 L5.00034335,12.94008 L5.00034335,4.07376 Z M23.0042232,2.08056 C22.1596567,2.79 21.5321202,3.636 21.1192103,4.6164 C20.7063004,3.636 20.0787639,2.79 19.2341974,2.08056 C17.5818369,0.69408 15.2055622,0 12.1065751,0 L0,0 L0,14.98008 L0,29.96016 L12.1065751,29.96016 C15.2055622,29.96016 17.5818369,29.26632 19.2341974,27.8796 C20.0787639,27.17016 20.7063004,26.3244 21.1192103,25.344 C21.5321202,26.3244 22.1596567,27.17016 23.0042232,27.8796 C24.6565837,29.26632 27.0328584,29.96016 30.1320858,29.96016 L42.2384206,29.96016 L42.2384206,14.98008 L42.2384206,0 L30.1320858,0 C27.0328584,0 24.6565837,0.69408 23.0042232,2.08056 Z" id="Fill-22"></path>
            </g>
        </g>
    </g>
</svg>