<svg xmlns="http://www.w3.org/2000/svg" width="188" height="63" viewBox="0 0 188 63"><path class="logo-text" fill="white" d="M94.9 42c1.3-3.4 2-7.1 2-10.8s-.7-7.4-2-10.8c5.6 4.4 9.8 8.7 11.8 10.8-2 2.2-6.1 6.4-11.8 10.8zm-9.4 6.5c-3.6 2.2-7.6 4.2-11.8 5.8 7.1-5.2 11.7-13.6 11.7-23.1S80.8 13.3 73.7 8.1c4.2 1.6 8.2 3.6 11.8 5.7 4.2 4.8 6.5 10.9 6.5 17.4s-2.2 12.5-6.5 17.3zm-29 6.7c-13.3 0-24.1-10.8-24.1-24s10.8-24 24.1-24 24.1 10.8 24.1 24-10.8 24-24.1 24zm-29-6.7c-4.2-4.8-6.5-11-6.5-17.4s2.3-12.5 6.5-17.4c3.6-2.2 7.6-4.2 11.8-5.7-7.1 5.2-11.7 13.6-11.7 23.1S32.2 49 39.3 54.2c-4.2-1.5-8.2-3.5-11.8-5.7zM18.1 42c-5.6-4.4-9.8-8.7-11.8-10.8 2-2.2 6.1-6.4 11.8-10.8-1.3 3.4-2 7.1-2 10.8s.7 7.4 2 10.8zm93.7-12.3c-.2-.3-6.3-7.5-16.1-14.8C82.6 5.1 69.1 0 56.5 0S30.4 5.1 17.3 14.9c-9.8 7.3-15.8 14.5-16 14.8L0 31.2l1.3 1.5c.2.3 6.3 7.5 16.1 14.8C30.5 57.2 44 62.4 56.6 62.4s26.1-5.1 39.2-14.9c9.8-7.3 15.8-14.5 16.1-14.8l1.3-1.5-1.4-1.5zM56.5 40.4c-5.1 0-9.3-4.1-9.3-9.2s4.2-9.2 9.3-9.2c3 0 5.7 1.4 7.4 3.6l4-2.6c-2.6-3.5-6.7-5.8-11.4-5.8-7.8 0-14.1 6.3-14.1 14s6.3 14 14.1 14c4.7 0 8.8-2.3 11.4-5.8l-4-2.6c-1.7 2.2-4.4 3.6-7.4 3.6"></path><path class="logo" fill="white" d="M129.2 34.4c-2.2 0-3.9-1.8-3.9-4s1.7-4 3.9-4c1.5 0 2.7.8 3.4 1.9l2.3-1.9c-1.3-1.8-3.4-3-5.7-3-3.8 0-7 3.1-7 6.9s3.1 7 7 7c2.3 0 4.4-1.2 5.7-3l-2.3-1.9c-.7 1.2-1.9 2-3.4 2m17-1.8l1.3-2.8 1.3 2.8h-2.6zm1.3-9.1l-6.7 13.7h3.2l1-2.1h5l1 2.1h3.2l-6.7-13.7zm18 6.5h-1.4v-3.5h1.4c1 0 1.7.8 1.7 1.7 0 .9-.7 1.8-1.7 1.8m.1-6.4h-4.5v13.6h3.1v-4.4h1.4c2.7 0 4.7-2.1 4.7-4.6s-2.1-4.6-4.7-4.6m14 9l1.3-2.8 1.3 2.8h-2.6zm1.3-9.1l-6.7 13.7h3.2l1-2.1h5l1 2.1h3.2l-6.7-13.7z"></path></svg>